<svg width="25" height="24" viewBox="0 0 25 24" fill="none" xmlns="http://www.w3.org/2000/svg">
<path d="M6.32635 19C6.21216 18.9998 6.09925 18.9758 5.99482 18.9296C5.89039 18.8834 5.79671 18.816 5.71974 18.7316C5.64138 18.6479 5.58159 18.5486 5.54428 18.4402C5.50698 18.3318 5.493 18.2168 5.50327 18.1026L5.70493 15.8846L15.0205 6.56976L17.9318 9.48096L8.61862 18.795L6.40125 18.9967C6.37635 18.999 6.35135 19.0001 6.32635 19ZM18.5129 8.89889L15.6024 5.98769L17.3482 4.24146C17.4246 4.16492 17.5154 4.10419 17.6153 4.06276C17.7153 4.02133 17.8224 4 17.9305 4C18.0387 4 18.1458 4.02133 18.2457 4.06276C18.3456 4.10419 18.4364 4.16492 18.5129 4.24146L20.2586 5.98769C20.3351 6.06415 20.3958 6.15495 20.4373 6.2549C20.4787 6.35485 20.5 6.46198 20.5 6.57018C20.5 6.67837 20.4787 6.7855 20.4373 6.88545C20.3958 6.9854 20.3351 7.0762 20.2586 7.15266L18.5137 8.89807L18.5129 8.89889Z" fill="white"/>
</svg>
