<svg width="197" height="122" viewBox="0 0 197 122" fill="none" xmlns="http://www.w3.org/2000/svg">
<path d="M158.807 103.027L73.6123 141.793C71.8101 142.613 71.0054 144.756 71.824 146.555L74.8008 153.097C75.6194 154.896 77.7637 155.697 79.5659 154.877L164.761 116.111C166.563 115.291 167.368 113.148 166.549 111.349L163.572 104.807C162.754 103.008 160.609 102.207 158.807 103.027ZM142.146 31.6424C136.719 34.1118 134.316 40.5108 136.781 45.9285C137.442 47.38 138.383 48.5802 139.524 49.5663L128.734 65.1858C126.436 68.5017 121.877 69.293 118.603 66.9331L88.647 45.3747C90.0197 42.5785 90.2253 39.2276 88.83 36.161C86.3648 30.7434 79.9617 28.3514 74.5346 30.8209C69.1075 33.2903 66.7044 39.6893 69.1696 45.1069C70.565 48.1735 73.2265 50.2198 76.2364 51.0218L72.8109 87.7697C72.4394 91.7883 68.8273 94.7151 64.838 94.26L45.994 92.1248C45.9888 90.6465 45.7137 89.1183 45.0533 87.6668C42.5881 82.2492 36.1849 79.8572 30.7579 82.3267C25.3308 84.7961 22.9072 91.2044 25.3724 96.6221C27.8376 102.04 34.2407 104.432 39.6678 101.962C40.2003 101.72 40.6955 101.396 41.1703 101.081L73.9122 133.76L152.554 97.976L149.425 51.8226C149.974 51.6714 150.544 51.5109 151.077 51.2686C156.504 48.7992 158.907 42.4002 156.442 36.9825C153.976 31.5649 147.573 29.1729 142.146 31.6424Z" fill="url(#paint0_linear_7723_139750)" fill-opacity="0.72"/>
<defs>
<linearGradient id="paint0_linear_7723_139750" x1="26.5" y1="39.001" x2="313" y2="252.501" gradientUnits="userSpaceOnUse">
<stop stop-color="white"/>
<stop offset="1" stop-color="white" stop-opacity="0"/>
<stop offset="1" stop-color="#5AC470"/>
<stop offset="1" stop-color="#78E28E"/>
</linearGradient>
</defs>
</svg>
